<svg width="1235" height="474" viewBox="0 0 1235 474" fill="none" xmlns="http://www.w3.org/2000/svg">
<rect x="1023" y="304" width="66" height="91" fill="black"/>
<rect x="1115" y="255" width="50" height="117" transform="rotate(90 1115 255)" fill="black"/>
<ellipse cx="919.5" cy="336.665" rx="60.5" ry="58.3346" fill="black"/>
<rect x="859" y="255" width="121" height="80.6853" fill="black"/>
<rect x="704" y="255" width="65" height="140" fill="black"/>
<rect x="776" y="255" width="65" height="140" fill="black"/>
<rect x="769" y="302" width="7" height="46" fill="black"/>
<rect x="603" y="81" width="66" height="140" fill="black"/>
<ellipse cx="673" cy="138" rx="58" ry="57" fill="black"/>
<rect x="744" y="81" width="65" height="140" fill="black"/>
<path d="M828 80H965L945 124.317H828V80Z" fill="black"/>
<path d="M840 175.683H958L941 220H822L840 175.683Z" fill="black"/>
<path d="M860 124.317H945L922 175.683H840L860 124.317Z" fill="black"/>
<path d="M973 80H1098L1076 124.317H953L973 80Z" fill="black"/>
<path d="M967 174.676H1081L1068 220H949L967 174.676Z" fill="black"/>
<path d="M987 124.317H1076L1052 174.676H967L987 124.317Z" fill="black"/>
<path d="M1120 81H1195L1235 221H1081L1120 81Z" fill="black"/>
<circle cx="237" cy="237" r="237" fill="#E93B26"/>
<path d="M172.632 181H302.368L437 291H38L172.632 181Z" fill="white"/>
</svg>
